<?xml version="1.0" encoding="UTF-8"?>
<svg id="Layer_1" data-name="Layer 1" xmlns="http://www.w3.org/2000/svg" viewBox="0 0 300 300">
  <defs>
    <style>
      .cls-1 {
        fill: #8cad53;
      }

      .cls-2 {
        fill: #276130;
      }
    </style>
  </defs>
  <g id="Final_Icon" data-name="Final Icon">
    <g>
      <path class="cls-1" d="m148.3.02c10.92-.08,20.55.82,30.08,2.69,14.34,2.81,28.02,7.51,40.97,14.3,16.51,8.65,30.98,19.91,43.31,33.91,14.02,15.92,24.24,33.97,30.58,54.22,2.9,9.27,4.83,18.74,5.88,28.38.93,8.62,1.11,17.29.58,25.93-1.53,25.15-8.8,48.52-22.22,69.9-15.93,25.39-37.6,44.32-64.78,56.89-11.83,5.47-24.22,9.21-37.08,11.43-13.49,2.34-27.02,2.96-40.63,1.59-22.81-2.3-44.04-9.38-63.5-21.52-26.64-16.62-46.29-39.38-59.02-68.07-5.29-11.91-8.79-24.37-10.77-37.27-1.84-11.98-2.21-23.99-1.08-36.04,1.38-14.76,4.87-29.01,10.52-42.72,5.21-12.64,12.01-24.37,20.43-35.16,14.5-18.59,32.32-33.1,53.5-43.46,13.89-6.8,28.51-11.28,43.8-13.52C135.71.49,142.6-.04,148.3.02Zm3.07,283.49c5.31.15,13.81-.51,22.26-2,10.81-1.91,21.22-5.08,31.2-9.63,21.86-9.98,39.78-24.77,53.69-44.36,14.68-20.67,22.74-43.74,24.46-68.99.94-13.87-.46-27.58-3.79-41.08-4.12-16.69-11.17-32.04-21.26-45.98-11.99-16.56-27.02-29.64-45.05-39.24-19.56-10.41-40.44-15.57-62.6-15.68-10.66-.05-21.19,1.05-31.53,3.61-27.44,6.78-50.5,20.82-68.99,42.19-19.6,22.66-30.21,49.11-32.35,78.92-.75,10.49-.26,20.99,1.54,31.41,2.83,16.44,8.44,31.84,17.13,46.05,14.48,23.69,34.35,41.4,59.65,52.94,16.63,7.58,34.11,11.44,55.64,11.84Z"/>
      <path class="cls-2" d="m127.33,93.39c1.24,10.86,3.36,21.56,5.84,32.19.68,2.91,1.36,5.81,2.02,8.72.14.6.2,1.22.24,1.83,0,.15-.16.38-.31.45-.16.08-.45.09-.58-.01-.55-.45-1.09-.93-1.58-1.44-6.4-6.54-13.73-11.81-21.83-16.02-1-.52-2.06-.96-3.15-1.24-1.7-.45-3.17.3-3.84,1.78-.69,1.52-.35,3.06,1.11,4.09,1.17.83,2.47,1.48,3.73,2.18,9.61,5.29,17.75,12.29,24.48,20.95.7.89,1.35,1.82,2.01,2.74,3.08,4.32,5.29,8.94,6.41,14.23,2.15,10.09,3.69,20.25,4.52,30.53.05.62.04,1.24.06,1.85-.45.37-.4.73.04,1.07.53,8.1.47,16.19-.01,24.28-.44.34-.51.69-.05,1.07-.71,11.47-2.88,22.59-8.04,32.98-.78,1.56-1.52,3.15-2.73,4.45-1.69,1.81-3.74,2.45-6.15,1.85-.88-.22-1.19-.69-1.03-1.58.11-.6.29-1.19.46-1.79,1.14-4.07,1.88-8.2,2.17-12.42.52-.52.58-1.06.1-1.62l-.08-2.69c.59-.79.56-1.56-.04-2.32-.66-9.26-3.34-17.98-7.16-26.38-2.91-6.39-6.34-12.49-9.99-18.47-4.41-7.21-8.89-14.37-13.3-21.57-7.34-11.99-13.37-24.59-17.46-38.08-1.58-5.23-2.96-10.51-3.76-15.92-.79-5.33-.91-10.67.31-15.97.47-2.01,1.12-3.96,2.15-5.77,1.84-3.23,4.52-5.29,8.24-5.89.71-.12,1.43-.22,2.13-.36,1.61-.32,2.06-.96,1.79-2.6-.12-.71-.35-1.4-.54-2.09-1.27-4.61-1.77-9.29-1.52-14.07.78-14.7,11.25-29.71,28.97-33.41,16.77-3.5,37.36,7.67,40.82,27.56.35,2.03.5,4.09.73,6.13.07.61.04,1.24.14,1.85.19,1.1.77,1.65,1.86,1.71.82.04,1.65-.04,2.47-.06,1.75-.05,3.51-.09,5.23.28,3.77.81,6.89,2.7,9.27,5.73,2.93,3.73,4.62,8,5.27,12.69.48,3.48.44,6.99.25,10.49-.02.4.01.81.05,1.21,0,.07.12.2.18.2.18,0,.46,0,.52-.11.35-.62.68-1.26.94-1.92,1.51-3.75,3.47-7.25,6-10.4,7.57-9.45,17.52-14.28,29.55-14.24,16.5.06,30.04,11.43,33.59,27.17,3.75,16.64-5.56,31.57-18.58,37.26-2.73,1.19-5.48,2.34-8.59,3.66,1.06.47,1.82.81,2.58,1.14,3.61,1.57,6.56,3.96,8.69,7.34,3.96,6.27,3.1,14.49-1.99,19.89-3.14,3.33-7.04,5.24-11.52,6.07-2.44.45-4.91.57-7.39.55-2.68-.02-5.36-.02-8.04.02-2.29.04-4.49.58-6.63,1.35-1.25.46-2.51.95-3.53,2.05.54,1.07,1.66,1.43,2.57,1.99,3.55,2.16,5.66,5.36,6.66,9.3,1.4,5.55-.12,10.4-3.94,14.54-2.68,2.9-6.13,4.47-9.93,5.3-1.41.31-2.84.54-4.27.71-5.64.66-10.42,3.06-14.47,6.99-3.28,3.19-5.86,6.91-8,10.93-1.4,2.63-2.65,5.35-3.97,8.03-1.27,2.59-2.58,5.16-4.18,7.56-1.43,2.16-3.1,4.11-5.09,5.78-3.18,2.68-6.91,4.01-10.98,4.51-.2.02-.41,0-.61-.02-.49-.04-.92-.66-.76-1.13.1-.29.21-.58.37-.84,5.89-9.34,9.37-19.66,12.25-30.23,3.17-11.62,6.8-23.1,11.16-34.34,9.33-24.09,23.49-45.02,41.29-63.6,2.35-2.45,4.77-4.85,7.21-7.21,3.41-3.31,7.05-6.33,11.23-8.66.62-.35,1.23-.78,1.74-1.27,1.16-1.12,1.42-2.39.86-3.63-.71-1.56-2.04-2.39-3.66-2.3-1.18.06-2.16.62-3.13,1.21-3.87,2.38-7.5,5.08-10.98,8.01-6.49,5.46-12.24,11.64-17.76,18.05-3.84,4.45-7.47,9.07-10.87,13.86-.36.5-.7,1.02-1.1,1.49-.68.8-1.39.69-1.94-.28-.3-.54-.53-1.11-.8-1.67-1.44-2.96-2.89-5.92-4.34-8.88-.68-1.39-1.48-2.72-2.64-3.78-1.17-1.06-2.43-1.25-3.68-.57-1.31.71-1.89,1.81-1.79,3.31.07,1.06.51,1.99.95,2.92,2.12,4.58,4.26,9.15,6.39,13.72.35.75.66,1.51,1.02,2.25.5,1.02.39,2-.12,2.96-.24.45-.48.91-.76,1.34-7.34,11.52-13.07,23.81-17.75,36.62-.64,1.74-1.3,3.47-1.97,5.2-.18.48-.41.94-.66,1.39-.09.16-.32.33-.48.33-.3,0-.55-.16-.59-.54-.19-2.16-.41-4.31-.57-6.46-.08-1.13-.06-2.27-.09-3.4.53-.58.48-1.14-.06-1.68-1-14.82-3.51-29.41-7.06-43.82-1.08-4.39-2.03-8.82-3.13-13.21-.39-1.55-.12-2.83.84-4.04,5.28-6.72,10.32-13.63,16.25-19.81.71-.74,1.44-1.49,1.97-2.36.89-1.46.56-3.05-.68-4.18-1.19-1.08-2.31-1.28-3.64-.4-1.02.68-1.94,1.52-2.82,2.38-4.38,4.23-8.18,8.97-12.03,13.67-.59.72-1.17,1.44-1.79,2.12-.58.62-1.17.49-1.35-.27-2.28-9.5-4.53-19.01-5.75-28.72-.51-4.08-1.04-8.16-1.52-12.25-.14-1.22-.14-2.46-.2-3.7.53-.57.5-1.13-.03-1.67-.03-.89-.05-1.79-.09-2.68,0-.18-.02-.37-.05-.55-.35-2.07-1.7-3.49-3.38-3.55-1.61-.06-2.97,1.21-3.54,3.23-.28,1-.27,2.01-.23,3.03.11,2.65.24,5.29.36,7.93-.52.44-.36.84.28,1.22l.37,5.53c-.55.42-.43.78.02,1.12Z"/>
      <path class="cls-2" d="m70.52,180.07c-1.62-2.02-3.21-2.99-4.71-4.05-4.9-3.47-9.33-7.46-13.15-12.1-7.35-8.92-11.55-19.14-12.61-30.65-.13-1.43-.28-2.87-.3-4.31-.01-.98.56-1.48,1.57-1.51,1.34-.04,2.68.02,4.02.02,2.78,0,5.56-.03,8.34-.02,2.71.02,3.19.48,3.19,3.28,0,1.97.14,3.91.64,5.82,1.03,3.98,3.15,7.15,6.93,8.99,9.02,4.38,15.61,11.28,20.72,19.75,4.36,7.23,8.72,14.46,13.07,21.69,5.36,8.91,10.71,17.82,16.07,26.74.48.79,1.13,1.62.54,2.56-.72,1.15-1.8.57-2.79.37-5.24-1.09-10.54-1.87-15.73-3.18-9.13-2.3-17.89-5.5-25.98-10.41-7.59-4.61-14.06-10.4-18.98-17.84-1.59-2.41-2.99-4.93-3.97-7.66-.17-.48-.32-.97-.42-1.47-.11-.52.35-1.07.87-1.01.71.09,1.42.21,2.1.42,2.46.75,4.92,1.51,7.36,2.31,3.15,1.02,6.38,1.63,9.65,2.08.99.14,2,.12,3.57.2Z"/>
      <path class="cls-2" d="m63.21,132.22c.09-.86.14-1.68.28-2.48.26-1.45.88-1.93,2.37-1.66,1.1.2,2.19.54,3.23.96,4.56,1.82,7.25,5.23,8.16,10.03.28,1.51.42,3.05.51,4.58.05.86-.68,1.39-1.43,1.07-3.11-1.32-6.28-2.56-9.18-4.31-2.03-1.22-3.26-3.09-3.62-5.47-.14-.91-.23-1.83-.33-2.72Z"/>
      <path class="cls-2" d="m131.11,239.51c.67.66.64,1.54.04,2.32,0-.75.01-1.4-.04-2.32Z"/>
      <path class="cls-2" d="m131.22,244.45c.54.57.44,1.13-.1,1.68.05-.59.11-1.11.1-1.68Z"/>
      <path class="cls-2" d="m154.58,194.36c.77.19.81,1.24.06,1.68,0-.59,0-.98-.06-1.68Z"/>
      <path class="cls-2" d="m133.6,78.1c1.16.12,1.48,2,.03,1.67,0-.56.02-.96-.03-1.67Z"/>
      <path class="cls-2" d="m127.33,93.39c-.48-.27-.81-.9-.02-1.12,0,.46,0,.66.02,1.12Z"/>
      <path class="cls-2" d="m126.94,86.74c-1,.12-1-.85-.28-1.24.06.42.18.82.28,1.24Z"/>
      <path class="cls-2" d="m146.51,197.28c-.61-.15-.49-.7-.04-1.07,0,.48.03.65.04,1.07Z"/>
      <path class="cls-2" d="m146.45,222.63c-.46-.38-.45-.83.05-1.07-.02.47-.02.61-.05,1.07Z"/>
    </g>
  </g>
</svg>