<?xml version="1.0" encoding="UTF-8"?>
<svg id="Layer_1" data-name="Layer 1" xmlns="http://www.w3.org/2000/svg" viewBox="0 0 300 65.85">
  <defs>
    <style>
      .cls-1 {
        fill: #8cad53;
      }

      .cls-2 {
        fill: #276130;
      }
    </style>
  </defs>
  <g>
    <g>
      <path class="cls-2" d="m69.08,36.69V15.93h3.97l8.84,14.65h-2.11l8.66-14.65h4v20.76h-4.48l-.06-13.85h.89l-7,11.63h-2.14l-7.09-11.63h.98v13.85h-4.48Z"/>
      <path class="cls-2" d="m93.46,36.69l9.23-20.76h4.75l9.31,20.76h-5.04l-7.62-18.33h1.93l-7.62,18.33h-4.92Zm4.66-4.45l1.22-3.65h10.74l1.25,3.65h-13.2Z"/>
      <path class="cls-2" d="m117.72,36.69V15.93h3.97l12.25,14.95h-1.93v-14.95h4.75v20.76h-3.97l-12.25-14.95h1.93v14.95h-4.75Z"/>
      <path class="cls-2" d="m140.5,36.69V15.93h9.43c2.25,0,4.24.43,5.96,1.29,1.72.86,3.06,2.07,4.03,3.62.97,1.55,1.45,3.38,1.45,5.47s-.48,3.92-1.45,5.47c-.97,1.55-2.31,2.76-4.03,3.62-1.72.86-3.71,1.29-5.96,1.29h-9.43Zm4.83-3.92h4.36c1.38,0,2.59-.26,3.6-.79,1.02-.52,1.81-1.28,2.37-2.25.56-.98.85-2.12.85-3.43s-.28-2.47-.85-3.44c-.56-.97-1.35-1.72-2.37-2.24-1.02-.52-2.22-.79-3.6-.79h-4.36v12.93Z"/>
      <path class="cls-2" d="m163.82,36.69V15.93h4.83v20.76h-4.83Z"/>
      <path class="cls-1" d="m173.01,36.69V15.93h14.65v2.58h-11.69v15.6h12.1v2.58h-15.07Zm2.7-9.28v-2.52h10.68v2.52h-10.68Z"/>
      <path class="cls-1" d="m188.77,36.69l8.63-11.78v2.28l-8.16-11.27h3.38l6.47,8.87-1.33.03,6.44-8.9h3.23l-8.1,11.09v-2.14l8.63,11.81h-3.41l-6.88-9.46h1.31l-6.79,9.46h-3.41Z"/>
      <path class="cls-1" d="m209.68,36.69V15.93h8.1c1.82,0,3.37.29,4.66.86,1.29.57,2.27,1.4,2.97,2.49.69,1.09,1.04,2.38,1.04,3.89s-.35,2.79-1.04,3.87c-.69,1.08-1.68,1.91-2.97,2.49-1.29.58-2.84.88-4.66.88h-6.47l1.33-1.39v7.68h-2.97Zm2.97-7.39l-1.33-1.48h6.38c1.9,0,3.34-.41,4.32-1.22.98-.81,1.47-1.96,1.47-3.44s-.49-2.63-1.47-3.44c-.98-.81-2.42-1.22-4.32-1.22h-6.38l1.33-1.48v12.28Z"/>
      <path class="cls-1" d="m229.61,36.69V15.93h8.1c2.69,0,4.81.64,6.35,1.91,1.54,1.28,2.31,3.05,2.31,5.32,0,1.5-.35,2.79-1.04,3.87-.69,1.08-1.68,1.9-2.97,2.48-1.29.57-2.84.86-4.66.86h-6.47l1.33-1.36v7.68h-2.97Zm2.97-7.39l-1.33-1.45h6.38c1.9,0,3.34-.41,4.32-1.23.98-.82,1.47-1.97,1.47-3.46s-.49-2.63-1.47-3.44c-.98-.81-2.42-1.22-4.32-1.22h-6.38l1.33-1.48v12.28Zm10.92,7.39l-5.28-7.53h3.17l5.34,7.53h-3.23Z"/>
      <path class="cls-1" d="m249.99,36.69V15.93h14.65v2.58h-11.69v15.6h12.1v2.58h-15.07Zm2.7-9.28v-2.52h10.68v2.52h-10.68Z"/>
      <path class="cls-1" d="m274.73,36.93c-1.58,0-3.1-.24-4.54-.73-1.44-.48-2.58-1.11-3.41-1.88l1.1-2.31c.79.69,1.8,1.27,3.03,1.72,1.23.46,2.5.68,3.83.68,1.21,0,2.18-.14,2.94-.42.75-.28,1.31-.66,1.66-1.14.36-.48.53-1.03.53-1.65,0-.71-.23-1.29-.7-1.72-.46-.43-1.07-.79-1.81-1.05-.74-.27-1.56-.5-2.45-.7-.89-.2-1.78-.43-2.68-.7-.9-.27-1.72-.61-2.46-1.02-.74-.42-1.34-.97-1.79-1.68-.46-.7-.68-1.61-.68-2.71s.28-2.05.85-2.95c.56-.9,1.43-1.62,2.61-2.17,1.18-.54,2.67-.82,4.49-.82,1.21,0,2.4.16,3.59.47,1.19.32,2.21.77,3.08,1.36l-.98,2.37c-.89-.59-1.83-1.02-2.82-1.29-.99-.27-1.95-.4-2.88-.4-1.17,0-2.13.15-2.88.44-.75.3-1.3.69-1.65,1.19-.35.49-.52,1.05-.52,1.66,0,.73.23,1.32.7,1.75.46.44,1.07.78,1.81,1.04.74.26,1.56.49,2.45.7s1.78.44,2.68.7c.9.26,1.72.59,2.46,1.01.74.42,1.34.97,1.79,1.66.45.69.68,1.58.68,2.67s-.29,2.02-.86,2.92c-.57.9-1.46,1.62-2.65,2.17-1.2.54-2.7.82-4.52.82Z"/>
      <path class="cls-1" d="m291.96,36.93c-1.58,0-3.1-.24-4.54-.73-1.44-.48-2.58-1.11-3.41-1.88l1.1-2.31c.79.69,1.8,1.27,3.03,1.72,1.23.46,2.5.68,3.83.68,1.21,0,2.18-.14,2.94-.42.75-.28,1.31-.66,1.66-1.14.36-.48.53-1.03.53-1.65,0-.71-.23-1.29-.7-1.72-.46-.43-1.07-.79-1.81-1.05-.74-.27-1.56-.5-2.45-.7-.89-.2-1.78-.43-2.68-.7-.9-.27-1.72-.61-2.46-1.02-.74-.42-1.34-.97-1.79-1.68-.46-.7-.68-1.61-.68-2.71s.28-2.05.85-2.95c.56-.9,1.43-1.62,2.61-2.17,1.18-.54,2.67-.82,4.49-.82,1.21,0,2.4.16,3.59.47,1.19.32,2.21.77,3.08,1.36l-.98,2.37c-.89-.59-1.83-1.02-2.82-1.29-.99-.27-1.95-.4-2.88-.4-1.17,0-2.13.15-2.88.44-.75.3-1.3.69-1.65,1.19-.35.49-.52,1.05-.52,1.66,0,.73.23,1.32.7,1.75.46.44,1.07.78,1.81,1.04.74.26,1.56.49,2.45.7s1.78.44,2.68.7c.9.26,1.72.59,2.46,1.01.74.42,1.34.97,1.79,1.66.45.69.68,1.58.68,2.67s-.29,2.02-.86,2.92c-.57.9-1.46,1.62-2.65,2.17-1.2.54-2.7.82-4.52.82Z"/>
    </g>
    <g>
      <path class="cls-2" d="m69.08,50.11v-8.87h6.7v1.65h-4.64v7.22h-2.07Zm1.9-3.23v-1.65h4.26v1.65h-4.26Z"/>
      <path class="cls-2" d="m78.95,50.11v-8.87h3.79c1.23,0,2.19.29,2.88.86.68.57,1.03,1.35,1.03,2.35,0,.67-.16,1.24-.47,1.72-.31.48-.76.84-1.33,1.09-.57.25-1.26.37-2.05.37h-2.71l.94-.89v3.37h-2.07Zm2.07-3.14l-.94-.98h2.6c.62,0,1.1-.14,1.42-.41.32-.27.48-.65.48-1.14s-.16-.87-.48-1.13c-.32-.27-.79-.4-1.42-.4h-2.6l.94-.98v5.03Zm3.59,3.14l-2.23-3.22h2.2l2.23,3.22h-2.2Z"/>
      <path class="cls-2" d="m93.99,50.27c-1.26,0-2.24-.35-2.95-1.05-.71-.7-1.06-1.71-1.06-3.02v-4.95h2.07v4.9c0,.84.17,1.44.52,1.82.35.38.83.56,1.44.56s1.11-.19,1.46-.56c.35-.38.52-.98.52-1.82v-4.9h2.01v4.95c0,1.31-.35,2.31-1.06,3.02-.71.7-1.69,1.05-2.94,1.05Z"/>
      <path class="cls-2" d="m101.81,50.11v-8.87h2.07v8.87h-2.07Z"/>
      <path class="cls-2" d="m109.57,50.11v-7.2h-2.84v-1.67h7.73v1.67h-2.84v7.2h-2.05Z"/>
      <path class="cls-2" d="m120.2,50.27c-.71,0-1.39-.1-2.05-.29-.65-.19-1.18-.44-1.58-.74l.7-1.55c.37.27.82.49,1.34.67.52.17,1.05.26,1.58.26.41,0,.73-.04.98-.13.25-.08.43-.2.55-.34s.18-.3.18-.49c0-.24-.09-.42-.28-.56-.19-.14-.43-.25-.74-.34-.31-.09-.64-.17-1.01-.25-.36-.08-.73-.18-1.1-.29-.37-.11-.71-.27-1.01-.46-.31-.19-.55-.44-.74-.75-.18-.31-.27-.69-.27-1.16,0-.51.14-.97.41-1.39.27-.42.68-.75,1.24-1s1.25-.37,2.08-.37c.56,0,1.11.07,1.65.2.54.14,1.02.33,1.43.58l-.65,1.55c-.4-.23-.81-.4-1.23-.51-.42-.11-.83-.17-1.22-.17s-.73.04-.98.13c-.25.09-.42.21-.54.36-.11.15-.17.32-.17.51,0,.24.09.43.28.57.19.14.43.26.74.34.3.08.64.16,1.01.24.37.08.74.18,1.1.3.36.12.7.27,1,.45s.55.43.74.73c.19.31.29.69.29,1.15,0,.5-.14.95-.41,1.37-.27.41-.69.75-1.25,1s-1.25.38-2.09.38Z"/>
      <path class="cls-2" d="m131.32,50.11l3.94-8.87h2.03l3.98,8.87h-2.15l-3.26-7.83h.82l-3.26,7.83h-2.1Zm1.99-1.9l.52-1.56h4.59l.53,1.56h-5.64Z"/>
      <path class="cls-2" d="m143.96,50.11v-8.87h1.7l5.23,6.39h-.82v-6.39h2.03v8.87h-1.7l-5.23-6.39h.82v6.39h-2.03Z"/>
      <path class="cls-2" d="m155.97,50.11v-8.87h4.03c.96,0,1.81.18,2.55.55.73.37,1.31.88,1.72,1.55.41.66.62,1.44.62,2.34s-.21,1.67-.62,2.34c-.41.66-.99,1.18-1.72,1.55s-1.58.55-2.55.55h-4.03Zm2.07-1.67h1.86c.59,0,1.1-.11,1.54-.34.43-.22.77-.54,1.01-.96.24-.42.36-.91.36-1.46s-.12-1.06-.36-1.47c-.24-.41-.58-.73-1.01-.96-.44-.22-.95-.34-1.54-.34h-1.86v5.52Z"/>
      <path class="cls-2" d="m176.23,50.11l-3.84-8.87h2.23l3.35,7.86h-1.31l3.4-7.86h2.04l-3.84,8.87h-2.03Z"/>
      <path class="cls-2" d="m184.61,50.11v-8.87h6.7v1.65h-4.66v5.58h4.83v1.65h-6.87Zm1.89-3.7v-1.61h4.27v1.61h-4.27Z"/>
      <path class="cls-2" d="m199.17,50.27c-.7,0-1.35-.11-1.94-.34-.59-.22-1.1-.54-1.53-.96-.43-.41-.77-.9-1.01-1.46-.24-.56-.36-1.17-.36-1.84s.12-1.28.36-1.84.58-1.04,1.02-1.46c.44-.41.95-.73,1.55-.96.59-.22,1.24-.34,1.95-.34.79,0,1.49.13,2.12.39.63.26,1.16.64,1.59,1.14l-1.31,1.22c-.33-.35-.68-.6-1.06-.77-.38-.16-.8-.25-1.25-.25-.42,0-.81.07-1.17.21-.35.14-.66.34-.92.59s-.46.55-.6.9c-.14.35-.21.73-.21,1.15s.07.78.21,1.13c.14.35.34.65.6.91s.56.45.91.6c.35.14.74.22,1.16.22s.8-.07,1.18-.2c.38-.14.76-.36,1.12-.67l1.17,1.48c-.49.37-1.05.65-1.69.84-.63.19-1.27.29-1.9.29Zm3.59-1.13l-1.88-.28v-3.32h1.88v3.6Z"/>
      <path class="cls-2" d="m206.43,50.11v-8.87h6.7v1.65h-4.66v5.58h4.83v1.65h-6.87Zm1.89-3.7v-1.61h4.27v1.61h-4.27Z"/>
      <path class="cls-2" d="m218.54,50.11v-7.2h-2.84v-1.67h7.73v1.67h-2.84v7.2h-2.05Z"/>
      <path class="cls-2" d="m224.7,50.11l3.94-8.87h2.03l3.98,8.87h-2.15l-3.26-7.83h.82l-3.26,7.83h-2.1Zm1.99-1.9l.52-1.56h4.59l.53,1.56h-5.64Z"/>
      <path class="cls-2" d="m237.34,50.11v-8.87h4.33c1.12,0,1.95.21,2.52.63.56.42.84.98.84,1.67,0,.46-.11.87-.34,1.21-.23.34-.54.61-.94.79-.4.19-.86.28-1.36.28l.24-.53c.56,0,1.05.09,1.48.28.43.19.76.46,1.01.81.24.35.37.79.37,1.31,0,.76-.3,1.35-.9,1.78-.6.43-1.48.64-2.65.64h-4.59Zm2.04-1.55h2.41c.52,0,.92-.09,1.2-.27s.42-.45.42-.82-.14-.66-.42-.84-.68-.27-1.2-.27h-2.56v-1.5h2.19c.5,0,.88-.09,1.15-.26.27-.17.4-.44.4-.79s-.13-.62-.4-.79c-.27-.17-.65-.25-1.15-.25h-2.04v5.78Z"/>
      <path class="cls-2" d="m248.81,50.11v-8.87h2.07v7.2h4.42v1.67h-6.49Z"/>
      <path class="cls-2" d="m258.25,50.11v-8.87h6.7v1.65h-4.66v5.58h4.83v1.65h-6.87Zm1.89-3.7v-1.61h4.27v1.61h-4.27Z"/>
      <path class="cls-2" d="m271.45,50.27c-.71,0-1.39-.1-2.05-.29-.65-.19-1.18-.44-1.58-.74l.7-1.55c.37.27.82.49,1.34.67.52.17,1.05.26,1.58.26.41,0,.73-.04.98-.13.25-.08.43-.2.55-.34.12-.14.18-.3.18-.49,0-.24-.09-.42-.28-.56-.19-.14-.43-.25-.74-.34-.31-.09-.64-.17-1.01-.25-.36-.08-.73-.18-1.1-.29-.37-.11-.71-.27-1.01-.46-.31-.19-.55-.44-.73-.75-.18-.31-.27-.69-.27-1.16,0-.51.14-.97.41-1.39.27-.42.68-.75,1.24-1,.55-.25,1.25-.37,2.08-.37.56,0,1.11.07,1.65.2.54.14,1.02.33,1.43.58l-.65,1.55c-.4-.23-.81-.4-1.23-.51-.42-.11-.83-.17-1.22-.17s-.73.04-.98.13c-.25.09-.42.21-.54.36-.11.15-.17.32-.17.51,0,.24.09.43.28.57.19.14.43.26.73.34.3.08.64.16,1.01.24.37.08.74.18,1.1.3.36.12.7.27,1,.45s.55.43.74.73c.19.31.29.69.29,1.15,0,.5-.14.95-.41,1.37-.27.41-.69.75-1.25,1s-1.25.38-2.09.38Z"/>
    </g>
  </g>
  <g id="Logo_2" data-name="Logo 2">
    <g>
      <path class="cls-1" d="m29.55,3.04c2.18-.02,4.1.16,5.99.54,2.86.56,5.58,1.5,8.16,2.85,3.29,1.72,6.17,3.97,8.63,6.76,2.79,3.17,4.83,6.77,6.09,10.8.58,1.85.96,3.73,1.17,5.65.19,1.72.22,3.44.12,5.17-.31,5.01-1.75,9.67-4.43,13.93-3.17,5.06-7.49,8.83-12.91,11.34-2.36,1.09-4.83,1.83-7.39,2.28-2.69.47-5.38.59-8.1.32-4.54-.46-8.78-1.87-12.65-4.29-5.31-3.31-9.22-7.85-11.76-13.56-1.05-2.37-1.75-4.86-2.15-7.43-.37-2.39-.44-4.78-.22-7.18.27-2.94.97-5.78,2.1-8.51,1.04-2.52,2.39-4.86,4.07-7.01,2.89-3.7,6.44-6.59,10.66-8.66,2.77-1.35,5.68-2.25,8.73-2.69,1.36-.2,2.73-.31,3.87-.29Zm.61,56.49c1.06.03,2.75-.1,4.44-.4,2.15-.38,4.23-1.01,6.22-1.92,4.36-1.99,7.93-4.93,10.7-8.84,2.92-4.12,4.53-8.72,4.87-13.75.19-2.76-.09-5.5-.76-8.18-.82-3.33-2.23-6.39-4.24-9.16-2.39-3.3-5.38-5.91-8.98-7.82-3.9-2.07-8.06-3.1-12.47-3.12-2.12,0-4.22.21-6.28.72-5.47,1.35-10.06,4.15-13.75,8.41-3.91,4.51-6.02,9.79-6.45,15.72-.15,2.09-.05,4.18.31,6.26.56,3.28,1.68,6.34,3.41,9.18,2.89,4.72,6.85,8.25,11.89,10.55,3.31,1.51,6.8,2.28,11.09,2.36Z"/>
      <path class="cls-2" d="m25.37,21.65c.25,2.16.67,4.3,1.16,6.41.14.58.27,1.16.4,1.74.03.12.04.24.05.36,0,.03-.03.08-.06.09-.03.02-.09.02-.11,0-.11-.09-.22-.19-.32-.29-1.27-1.3-2.74-2.35-4.35-3.19-.2-.1-.41-.19-.63-.25-.34-.09-.63.06-.76.35-.14.3-.07.61.22.82.23.17.49.3.74.43,1.91,1.05,3.54,2.45,4.88,4.17.14.18.27.36.4.55.61.86,1.05,1.78,1.28,2.83.43,2.01.74,4.03.9,6.08,0,.12,0,.25.01.37-.09.07-.08.15,0,.21.11,1.61.09,3.23,0,4.84-.09.07-.1.14,0,.21-.14,2.29-.57,4.5-1.6,6.57-.15.31-.3.63-.54.89-.34.36-.74.49-1.23.37-.17-.04-.24-.14-.2-.32.02-.12.06-.24.09-.36.23-.81.37-1.63.43-2.47.1-.1.12-.21.02-.32l-.02-.54c.12-.16.11-.31,0-.46-.13-1.85-.67-3.58-1.43-5.26-.58-1.27-1.26-2.49-1.99-3.68-.88-1.44-1.77-2.86-2.65-4.3-1.46-2.39-2.66-4.9-3.48-7.59-.32-1.04-.59-2.09-.75-3.17-.16-1.06-.18-2.13.06-3.18.09-.4.22-.79.43-1.15.37-.64.9-1.05,1.64-1.17.14-.02.28-.04.42-.07.32-.06.41-.19.36-.52-.02-.14-.07-.28-.11-.42-.25-.92-.35-1.85-.3-2.8.15-2.93,2.24-5.92,5.77-6.66,3.34-.7,7.44,1.53,8.13,5.49.07.4.1.81.14,1.22.01.12,0,.25.03.37.04.22.15.33.37.34.16,0,.33,0,.49-.01.35-.01.7-.02,1.04.06.75.16,1.37.54,1.85,1.14.58.74.92,1.59,1.05,2.53.1.69.09,1.39.05,2.09,0,.08,0,.16,0,.24,0,.01.02.04.04.04.04,0,.09,0,.1-.02.07-.12.13-.25.19-.38.3-.75.69-1.44,1.2-2.07,1.51-1.88,3.49-2.85,5.89-2.84,3.29.01,5.98,2.28,6.69,5.41.75,3.32-1.11,6.29-3.7,7.42-.54.24-1.09.47-1.71.73.21.09.36.16.51.23.72.31,1.31.79,1.73,1.46.79,1.25.62,2.89-.4,3.96-.63.66-1.4,1.04-2.29,1.21-.49.09-.98.11-1.47.11-.53,0-1.07,0-1.6,0-.46,0-.9.11-1.32.27-.25.09-.5.19-.7.41.11.21.33.29.51.4.71.43,1.13,1.07,1.33,1.85.28,1.11-.02,2.07-.79,2.9-.53.58-1.22.89-1.98,1.06-.28.06-.56.11-.85.14-1.12.13-2.08.61-2.88,1.39-.65.64-1.17,1.38-1.59,2.18-.28.52-.53,1.07-.79,1.6-.25.52-.51,1.03-.83,1.51-.29.43-.62.82-1.01,1.15-.63.53-1.38.8-2.19.9-.04,0-.08,0-.12,0-.1,0-.18-.13-.15-.22.02-.06.04-.12.07-.17,1.17-1.86,1.87-3.92,2.44-6.02.63-2.32,1.35-4.6,2.22-6.84,1.86-4.8,4.68-8.97,8.23-12.67.47-.49.95-.97,1.44-1.44.68-.66,1.41-1.26,2.24-1.72.12-.07.24-.15.35-.25.23-.22.28-.48.17-.72-.14-.31-.41-.48-.73-.46-.24.01-.43.12-.62.24-.77.48-1.49,1.01-2.19,1.6-1.29,1.09-2.44,2.32-3.54,3.6-.76.89-1.49,1.81-2.17,2.76-.07.1-.14.2-.22.3-.13.16-.28.14-.39-.06-.06-.11-.11-.22-.16-.33-.29-.59-.57-1.18-.86-1.77-.14-.28-.29-.54-.53-.75-.23-.21-.48-.25-.73-.11-.26.14-.38.36-.36.66.01.21.1.4.19.58.42.91.85,1.82,1.27,2.73.07.15.13.3.2.45.1.2.08.4-.02.59-.05.09-.1.18-.15.27-1.46,2.3-2.6,4.74-3.54,7.3-.13.35-.26.69-.39,1.04-.04.1-.08.19-.13.28-.02.03-.06.06-.1.06-.06,0-.11-.03-.12-.11-.04-.43-.08-.86-.11-1.29-.02-.22-.01-.45-.02-.68.11-.12.09-.23-.01-.33-.2-2.95-.7-5.86-1.41-8.73-.22-.88-.4-1.76-.62-2.63-.08-.31-.02-.56.17-.81,1.05-1.34,2.06-2.72,3.24-3.95.14-.15.29-.3.39-.47.18-.29.11-.61-.14-.83-.24-.22-.46-.25-.73-.08-.2.13-.39.3-.56.47-.87.84-1.63,1.79-2.4,2.72-.12.14-.23.29-.36.42-.11.12-.23.1-.27-.05-.45-1.89-.9-3.79-1.15-5.72-.1-.81-.21-1.63-.3-2.44-.03-.24-.03-.49-.04-.74.11-.11.1-.22,0-.33,0-.18-.01-.36-.02-.53,0-.04,0-.07-.01-.11-.07-.41-.34-.7-.67-.71-.32-.01-.59.24-.71.64-.06.2-.05.4-.05.6.02.53.05,1.05.07,1.58-.1.09-.07.17.06.24l.07,1.1c-.11.08-.09.16,0,.22Z"/>
      <path class="cls-2" d="m14.05,38.92c-.32-.4-.64-.6-.94-.81-.98-.69-1.86-1.49-2.62-2.41-1.46-1.78-2.3-3.81-2.51-6.11-.03-.29-.06-.57-.06-.86,0-.2.11-.3.31-.3.27,0,.53,0,.8,0,.55,0,1.11,0,1.66,0,.54,0,.63.1.64.65,0,.39.03.78.13,1.16.21.79.63,1.43,1.38,1.79,1.8.87,3.11,2.25,4.13,3.94.87,1.44,1.74,2.88,2.6,4.32,1.07,1.78,2.13,3.55,3.2,5.33.1.16.23.32.11.51-.14.23-.36.11-.56.07-1.04-.22-2.1-.37-3.13-.63-1.82-.46-3.56-1.1-5.18-2.07-1.51-.92-2.8-2.07-3.78-3.55-.32-.48-.6-.98-.79-1.53-.03-.1-.06-.19-.08-.29-.02-.1.07-.21.17-.2.14.02.28.04.42.08.49.15.98.3,1.47.46.63.2,1.27.32,1.92.41.2.03.4.02.71.04Z"/>
      <path class="cls-2" d="m12.6,29.38c.02-.17.03-.33.06-.49.05-.29.18-.38.47-.33.22.04.44.11.64.19.91.36,1.45,1.04,1.63,2,.06.3.08.61.1.91.01.17-.13.28-.28.21-.62-.26-1.25-.51-1.83-.86-.4-.24-.65-.62-.72-1.09-.03-.18-.05-.36-.07-.54Z"/>
      <path class="cls-2" d="m26.12,50.76c.13.13.13.31,0,.46,0-.15,0-.28,0-.46Z"/>
      <path class="cls-2" d="m26.15,51.75c.11.11.09.23-.02.33,0-.12.02-.22.02-.33Z"/>
      <path class="cls-2" d="m30.8,41.77c.15.04.16.25.01.33,0-.12,0-.19-.01-.33Z"/>
      <path class="cls-2" d="m26.62,18.6c.23.02.3.4,0,.33,0-.11,0-.19,0-.33Z"/>
      <path class="cls-2" d="m25.37,21.65c-.1-.05-.16-.18,0-.22,0,.09,0,.13,0,.22Z"/>
      <path class="cls-2" d="m25.29,20.32c-.2.02-.2-.17-.06-.25.01.08.04.16.06.25Z"/>
      <path class="cls-2" d="m29.19,42.35c-.12-.03-.1-.14,0-.21,0,.1,0,.13,0,.21Z"/>
      <path class="cls-2" d="m29.18,47.4c-.09-.08-.09-.17,0-.21,0,.09,0,.12,0,.21Z"/>
    </g>
  </g>
</svg>